<?xml version="1.0" encoding="UTF-8"?>
<svg width="24px" height="24px" viewBox="0 0 24 24" version="1.1" xmlns="http://www.w3.org/2000/svg">
    <path d="M12.01 1.485c-2.082 0-3.754.02-3.743.046.01.027 1.764 3.052 3.896 6.723l3.877 6.675.948-1.086c.52-.596 1.793-2.043 2.827-3.216l1.881-2.131-1.881-2.131c-1.034-1.173-2.307-2.62-2.827-3.216l-.948-1.086-4.03 6.931-4.03 6.932-.782-1.346c-.43-.741-1.658-2.859-2.727-4.708-1.07-1.85-1.982-3.43-2.028-3.512-.045-.083-.083 2.86-.083 6.538v6.686h23.997v-6.686c0-3.678-.038-6.621-.083-6.538-.046.082-.958 1.662-2.028 3.512-1.069 1.849-2.297 3.967-2.727 4.708l-.782 1.346-1.77-3.05c-.973-1.678-1.77-3.072-1.77-3.098 0-.027 1.672-.048 3.715-.048h3.715V1.485h-3.715c-2.043 0-3.715-.02-3.715-.046 0-.027.797-1.42 1.77-3.098l1.77-3.05.782 1.346c.43.741 1.658 2.859 2.727 4.708 1.07 1.85 1.982 3.43 2.028 3.512.045.083.083-2.86.083-6.538V-8.997H.01v6.686c0 3.678.038 6.621.083 6.538.046-.082.958-1.662 2.028-3.512 1.069-1.849 2.297-3.967 2.727-4.708l.782-1.346 4.03 6.931 4.03 6.932.948-1.086c.52-.596 1.793-2.043 2.827-3.216l1.881-2.131-1.881-2.131c-1.034-1.173-2.307-2.62-2.827-3.216l-.948-1.086-3.896 6.723c-2.132 3.671-3.886 6.696-3.896 6.723-.011.026 1.661.046 3.743.046h3.763V1.485h-3.763z" fill="white"/>
</svg>