<?xml version="1.0" encoding="UTF-8"?>
<svg width="24px" height="24px" viewBox="0 0 24 24" version="1.1" xmlns="http://www.w3.org/2000/svg">
    <path d="M12 0C5.373 0 0 5.373 0 12s5.373 12 12 12 12-5.373 12-12S18.627 0 12 0zm0 2a10 10 0 0 1 10 10 10 10 0 0 1-10 10A10 10 0 0 1 2 12 10 10 0 0 1 12 2zm4.95 4.636L7.364 16.95l-.314.314.314-.314 9.586-9.586-.314.314.314-.314-.314.314zM12 6.5a.5.5 0 0 0-.5.5v1a.5.5 0 0 0 1 0V7a.5.5 0 0 0-.5-.5zm-5.5 5.5a.5.5 0 0 0 0 1h1a.5.5 0 0 0 0-1h-1zm10 0a.5.5 0 0 0 0 1h1a.5.5 0 0 0 0-1h-1zM12 16.5a.5.5 0 0 0-.5.5v1a.5.5 0 0 0 1 0v-1a.5.5 0 0 0-.5-.5z" fill="#000000"/>
</svg>