<?xml version="1.0" encoding="UTF-8"?>
<svg width="24px" height="24px" viewBox="0 0 24 24" version="1.1" xmlns="http://www.w3.org/2000/svg">
    <path d="M16.6 5.82s.51.5 0 0A4.278 4.278 0 0 1 19.75 4h-2.93a7.62 7.62 0 0 1-.89-2H12v8.55l.002 5.45c0 1.31-.94 2.45-2.24 2.45s-2.24-1.14-2.24-2.45c0-1.31.94-2.45 2.24-2.45.4 0 .77.12 1.08.32V11.3A5.9 5.9 0 0 0 9 11c-3.35 0-6 2.57-6 6.2 0 3.43 2.65 6.2 6 6.2 3.35 0 6-2.77 6-6.2V12c1.05.77 2.41 1.2 3.8 1.2V9.6c-.6 0-1.16-.13-1.67-.4" fill="#ffffff"/>
</svg>